<svg xmlns="http://www.w3.org/2000/svg" xmlns:xlink="http://www.w3.org/1999/xlink" aria-hidden="true" role="img" class="iconify iconify--logos" width="31.88" height="32" preserveAspectRatio="xMidYMid meet" 
viewBox="0 0 400 264">

<path fill="#ffffff" opacity="1.000000" stroke="none" 
	d="
M126.018951,248.953430 
	C129.254028,253.759995 132.301315,258.254608 135.482742,262.947083 
	C110.162529,259.964722 69.243294,231.981934 64.442009,177.336578 
	C63.192368,179.778625 62.556477,181.089340 61.861191,182.367767 
	C59.326813,187.027695 57.207718,191.990036 54.132401,196.262802 
	C48.299889,204.366348 40.841400,204.981949 34.728981,197.124573 
	C29.584959,190.512039 25.113283,183.030869 21.958445,175.277313 
	C9.411404,144.440826 2.765896,112.362999 2.918629,78.907272 
	C2.964162,68.933571 7.019707,61.175343 13.495460,54.399948 
	C32.565845,34.447151 54.514328,18.426800 79.834702,7.281678 
	C84.825180,5.085046 90.211578,2.812525 95.504372,2.577307 
	C99.983353,2.378255 105.229736,4.134461 109.004326,6.694612 
	C116.114021,11.516829 122.588448,17.344391 128.951706,23.164301 
	C131.468002,25.465733 133.297714,26.318041 136.704681,25.102598 
	C148.784088,20.793245 161.174164,19.142151 173.990891,21.519012 
	C180.862991,22.793444 185.273331,26.708525 188.290741,32.731987 
	C193.231552,42.595016 195.274872,53.195179 195.980118,64.040314 
	C197.515945,87.657585 195.157791,110.646332 183.662735,131.913544 
	C177.277481,143.726990 168.176163,152.506775 155.500290,157.601410 
	C142.435028,162.852554 131.027023,170.594696 123.253998,182.646317 
	C111.036964,201.588058 112.466347,221.101486 121.562462,240.732132 
	C122.819679,243.445358 124.400269,246.008759 126.018951,248.953430 
M135.626831,131.924698 
	C144.623230,139.900406 154.731979,134.941116 158.815506,126.788742 
	C163.713089,117.011215 163.644516,107.177765 157.867447,97.807938 
	C150.562851,85.960594 137.138672,86.661308 130.646088,99.042679 
	C125.213387,109.402847 126.979019,122.376701 135.626831,131.924698 
z"/>

<path fill="#ffffff" opacity="1.000000" stroke="none" 
	d="M214.188278,31.325737 
	C218.368362,23.635265 225.320389,21.843937 232.879440,21.170612 
	C244.024475,20.177864 254.829163,21.871010 265.243927,25.739119 
	C268.120270,26.807417 269.639954,26.134596 271.735107,24.227667 
	C277.873413,18.640739 284.051056,13.038814 290.680969,8.066410 
	C297.398834,3.028089 304.870392,2.000844 313.217529,4.774400 
	C332.342346,11.129132 348.932617,21.797264 364.525330,34.122387 
	C372.470001,40.402229 379.906036,47.374519 387.188049,54.430092 
	C394.523987,61.537952 398.468658,70.213921 398.275299,80.774330 
	C397.608276,117.203545 390.572540,152.177887 374.640625,185.090073 
	C372.288666,189.948807 368.956573,194.563385 365.218231,198.467789 
	C359.330750,204.616821 352.921997,204.190399 347.797668,197.418701 
	C344.524445,193.093231 342.252472,188.004211 339.594574,183.222504 
	C338.779144,181.755463 338.172241,180.172516 336.934387,177.476486 
	C331.112579,222.219452 309.082062,251.744934 266.596771,264.123718 
	C266.156494,263.791412 265.716217,263.459076 265.275940,263.126770 
	C266.232697,261.745300 267.153839,260.337555 268.151703,258.986450 
	C277.775665,245.956085 285.625946,231.989685 286.570770,215.488586 
	C288.000031,190.527679 275.350220,173.498871 254.306946,161.863037 
	C248.202744,158.487717 241.469818,156.156586 235.644119,152.389496 
	C223.192734,144.338013 216.214050,132.028046 211.657318,118.331429 
	C203.640869,94.235680 201.904144,69.780533 208.754150,45.089588 
	C210.033905,40.476753 212.225235,36.116821 214.188278,31.325737 
M258.097931,136.088852 
	C272.797974,133.399750 278.591980,110.110214 269.005951,96.648804 
	C262.615326,87.674629 251.965790,87.356049 245.005676,95.953354 
	C237.880051,104.755135 237.095337,118.728569 243.223206,128.273575 
	C246.497116,133.373138 250.914597,136.481979 258.097931,136.088852 
z"/>
<path fill="#ffffff" opacity="1.000000" stroke="none" 
	d="M182.006973,235.032990 
	C173.965210,229.763199 167.272736,223.653137 162.194122,215.815628 
	C155.934448,206.155502 157.336884,200.692291 165.889130,192.708176 
	C170.402023,188.495056 176.859116,185.517746 182.941498,184.004303 
	C196.690277,180.583282 210.821045,180.327179 224.147995,185.862167 
	C229.612823,188.131821 234.788849,192.045074 238.914856,196.344406 
	C243.815811,201.451279 244.245880,207.931427 240.120407,214.238678 
	C232.048264,226.579865 221.345886,235.693665 207.517059,241.005463 
	C197.827209,244.727463 190.102463,239.817093 182.006973,235.032990 
z"/>

</svg>